<?xml version="1.0" encoding="UTF-8" standalone="no"?>
<!DOCTYPE svg PUBLIC "-//W3C//DTD SVG 1.1//EN" "http://www.w3.org/Graphics/SVG/1.1/DTD/svg11.dtd">
<svg xmlns="http://www.w3.org/2000/svg" version="1.1" viewBox="0 0 1322 793" width="1322.0pt" height="793.0pt">
<path d="M 0.00 0.00 L 1322.00 0.00 L 1322.00 793.00 L 0.00 793.00 L 0.00 0.00 Z" fill="#ffffff" />
<path d="M 947.04 286.73 C 948.02 287.44 948.98 288.18 949.94 288.93 C 947.49 291.59 945.26 294.39 943.79 297.73 C 939.10 308.42 941.53 321.08 949.98 329.16 C 948.98 329.84 947.97 330.54 946.97 331.23 C 940.90 325.54 937.58 317.27 937.51 308.99 C 937.60 300.66 941.05 292.54 947.04 286.73 Z" fill="#ee370b" />
<path d="M 999.79 287.07 C 1003.31 290.84 1006.05 295.25 1007.50 300.22 C 1010.63 310.70 1007.83 322.43 1000.26 330.32 C 999.06 331.79 997.43 329.72 996.25 329.21 C 998.94 326.38 1001.30 323.38 1002.78 319.74 C 1005.00 314.88 1005.01 309.38 1004.46 304.17 C 1003.71 298.77 1001.01 294.43 997.68 290.26 C 996.11 288.35 998.04 287.35 999.79 287.07 Z" fill="#ee370b" />
<path d="M 954.94 291.99 C 955.94 292.67 956.91 293.38 957.89 294.09 C 953.76 298.16 950.96 303.03 951.26 309.00 C 950.95 314.92 953.73 319.92 957.85 323.96 C 956.88 324.69 955.91 325.42 954.95 326.16 C 952.32 323.55 950.02 320.78 948.77 317.24 C 945.29 308.41 947.87 298.24 954.94 291.99 Z" fill="#ee370b" />
<path d="M 991.78 292.08 C 997.51 298.02 1000.73 306.38 998.36 314.55 C 997.41 319.08 994.77 322.46 991.83 325.88 C 991.10 325.68 990.36 325.49 989.63 325.30 C 989.46 324.60 989.30 323.90 989.14 323.19 C 991.94 320.29 994.07 317.03 994.75 312.99 C 996.27 306.27 993.89 299.63 989.13 294.79 C 989.29 294.14 989.46 293.50 989.65 292.86 C 990.36 292.59 991.07 292.33 991.78 292.08 Z" fill="#ee370b" />
<path d="M 962.89 297.19 C 963.90 297.85 964.88 298.55 965.87 299.25 C 962.49 302.46 960.07 306.08 960.98 310.98 C 961.52 314.36 963.57 316.54 965.95 318.78 C 964.92 319.49 963.89 320.20 962.86 320.92 C 959.25 317.82 957.01 313.80 956.79 309.00 C 957.05 304.34 959.27 300.13 962.89 297.19 Z" fill="#ee370b" />
<path d="M 983.59 297.21 C 987.00 300.21 989.42 304.43 989.52 309.04 C 989.41 313.73 987.05 317.47 983.83 320.71 C 983.13 320.52 982.43 320.33 981.72 320.14 C 981.50 319.49 981.27 318.83 981.05 318.17 C 983.64 315.60 985.67 312.86 985.53 309.01 C 985.67 305.00 983.49 302.44 980.94 299.71 C 981.64 298.28 982.12 297.80 983.59 297.21 Z" fill="#ee370b" />
<path d="M 971.56 301.77 C 975.23 300.85 979.21 302.78 980.56 306.35 C 982.13 309.72 980.65 313.68 977.63 315.66 C 973.64 318.22 967.82 316.48 966.27 311.87 C 964.53 307.69 967.29 302.86 971.56 301.77 Z" fill="#ee370b" />
<path d="M 349.88 305.41 C 349.91 308.02 349.89 310.62 349.80 313.23 C 347.14 313.30 344.48 313.30 341.82 313.26 C 341.66 310.70 341.56 308.13 341.49 305.57 C 344.29 305.25 347.07 305.26 349.88 305.41 Z" fill="#0764aa" />
<path d="M 319.22 311.38 C 325.98 311.18 332.90 311.09 339.64 311.41 L 340.05 311.94 C 340.34 318.62 340.05 325.35 340.19 332.04 C 333.49 332.38 326.62 332.31 319.91 332.14 C 318.25 331.66 319.09 329.31 318.96 328.01 C 319.37 322.47 318.88 316.91 319.22 311.38 Z" fill="#0764aa" />
<path d="M 258.97 319.75 C 264.34 319.70 269.71 319.77 275.09 319.73 C 274.05 323.07 271.63 324.85 269.54 327.54 C 264.07 334.31 258.82 341.76 256.31 350.17 C 255.31 353.66 255.15 357.86 256.75 361.21 C 258.92 366.27 263.73 370.05 268.44 372.65 C 275.76 376.55 284.23 379.89 290.52 385.45 C 295.75 389.98 299.75 396.93 299.48 404.00 C 299.72 410.60 297.67 417.30 293.80 422.65 C 282.19 422.62 270.59 422.65 258.98 422.69 C 251.81 423.29 245.12 416.03 245.49 409.00 C 245.43 385.67 245.49 362.32 245.60 339.00 C 245.64 334.47 245.21 329.81 247.85 325.86 C 250.27 322.32 254.59 319.66 258.97 319.75 Z" fill="#9ed32d" />
<path d="M 284.43 320.42 C 288.42 319.90 292.59 320.16 296.61 320.38 C 296.57 322.44 296.52 324.49 296.46 326.55 C 299.50 327.53 301.51 327.48 304.56 326.57 C 304.51 324.52 304.46 322.46 304.42 320.41 C 307.62 320.08 310.82 320.13 314.03 320.23 C 314.33 325.72 314.01 331.21 314.25 336.70 C 319.97 336.89 325.68 336.76 331.40 336.80 C 331.50 342.39 331.39 347.97 331.48 353.55 C 337.09 353.72 342.69 353.54 348.29 353.70 C 348.39 363.01 348.51 372.37 348.22 381.67 C 344.55 378.87 340.75 376.31 336.49 374.50 C 322.28 368.33 305.59 368.06 291.51 362.35 C 283.53 359.04 276.34 352.82 274.70 343.98 C 273.27 335.46 278.81 326.39 284.43 320.42 Z" fill="#0764aa" />
<path d="M 342.50 330.23 C 346.13 329.37 350.15 329.94 353.86 329.85 C 354.14 333.68 354.20 337.48 353.79 341.30 C 350.05 341.29 346.31 341.30 342.56 341.23 C 342.44 337.57 342.27 333.88 342.50 330.23 Z" fill="#0764aa" />
<path d="M 389.98 331.86 C 394.33 332.13 399.57 331.34 403.69 332.30 C 418.05 358.01 432.62 384.97 446.93 410.89 C 441.00 411.17 435.05 411.19 429.12 410.89 C 425.93 404.76 422.54 398.73 419.28 392.64 C 403.40 392.66 387.53 392.66 371.66 392.64 C 368.26 398.67 365.00 404.78 361.76 410.89 C 355.86 411.06 349.88 411.13 343.98 410.87 C 358.06 385.09 372.34 359.25 386.44 333.45 C 387.26 331.63 388.22 331.95 389.98 331.86 Z" fill="#0764aa" />
<path d="M 455.11 331.90 C 460.77 331.88 466.44 331.88 472.11 331.89 C 481.99 352.90 491.74 373.99 501.69 394.97 C 511.34 374.52 520.97 353.99 530.58 333.51 C 530.99 332.32 531.77 331.79 532.93 331.91 C 537.98 331.81 543.03 331.92 548.08 331.90 C 548.08 358.24 548.13 384.59 548.05 410.93 C 543.29 411.14 538.54 411.16 533.77 410.92 C 533.72 393.73 533.85 376.55 533.70 359.36 C 525.50 376.57 517.03 393.66 508.81 410.86 C 503.93 411.19 499.10 411.17 494.22 410.85 C 485.98 393.69 477.66 376.56 469.39 359.40 C 469.34 376.57 469.36 393.74 469.37 410.91 C 464.61 411.16 459.86 411.12 455.11 410.99 C 455.07 384.63 455.08 358.26 455.11 331.90 Z" fill="#0764aa" />
<path d="M 561.60 331.89 C 566.72 331.89 571.84 331.87 576.96 331.89 C 577.24 350.27 576.96 368.66 577.10 387.03 C 577.20 389.49 577.47 391.86 579.38 393.62 C 581.31 395.28 583.56 395.38 585.99 395.44 C 598.33 395.43 610.66 395.42 623.00 395.44 C 625.65 395.38 628.29 395.28 630.24 393.25 C 632.17 391.14 632.23 387.69 632.29 385.00 C 632.26 367.30 632.26 349.59 632.28 331.89 C 637.46 331.88 642.64 331.88 647.81 331.91 C 647.79 350.27 647.84 368.64 647.79 387.00 C 647.72 393.49 646.78 401.11 641.81 405.82 C 637.32 409.98 630.90 410.83 625.02 410.92 C 615.68 410.97 606.34 410.89 597.00 410.94 C 590.48 411.09 583.43 411.38 576.96 410.25 C 572.16 409.38 567.77 407.11 565.14 402.88 C 562.13 398.03 561.64 391.56 561.60 386.00 C 561.61 367.96 561.60 349.92 561.60 331.89 Z" fill="#0764aa" />
<path d="M 661.30 331.91 C 683.87 331.86 706.44 331.89 729.01 331.89 C 735.16 332.10 742.30 332.53 747.09 336.91 C 751.93 341.46 752.65 348.73 752.81 355.00 C 752.85 366.00 752.86 377.00 752.80 388.00 C 752.67 394.21 751.88 401.58 747.04 406.04 C 742.32 410.34 735.07 410.84 729.00 410.93 C 713.34 410.93 697.66 410.93 682.00 410.92 C 675.09 410.85 668.21 411.30 661.30 410.94 C 661.29 384.60 661.29 358.25 661.30 331.91 Z" fill="#0764aa" />
<path d="M 799.87 331.97 C 805.17 331.73 810.49 331.96 815.80 331.89 C 828.47 354.99 841.15 378.08 853.83 401.17 C 855.65 404.41 857.45 407.66 859.07 411.02 C 853.17 411.05 847.22 411.25 841.33 410.86 C 838.09 404.76 834.84 398.64 831.44 392.62 C 815.57 392.69 799.69 392.63 783.81 392.65 C 780.53 398.75 777.19 404.82 773.94 410.94 C 768.02 411.16 762.07 411.19 756.16 410.87 C 770.34 385.17 784.47 359.34 798.60 333.61 C 798.95 332.98 799.37 332.44 799.87 331.97 Z" fill="#0764aa" />
<path d="M 867.04 331.92 C 888.36 331.84 909.68 331.92 931.00 331.87 C 936.51 331.95 942.77 332.28 947.40 335.62 C 951.25 338.40 952.93 342.69 953.74 347.21 C 954.70 353.04 954.48 359.11 954.34 365.01 C 954.00 370.73 952.77 377.24 947.82 380.82 C 942.23 384.83 934.38 384.79 927.81 384.98 C 937.42 393.71 947.20 402.27 956.94 410.85 C 950.96 411.13 944.98 410.90 939.00 411.09 C 937.15 410.99 935.44 411.44 934.05 409.95 C 925.27 401.74 916.49 393.45 907.73 385.25 C 899.37 385.24 891.01 385.21 882.66 385.25 C 882.65 393.83 882.68 402.40 882.64 410.97 C 877.48 411.15 872.32 411.06 867.15 411.06 C 867.01 384.73 867.19 358.35 867.04 331.92 Z" fill="#0764aa" />
<path d="M 966.92 331.99 C 972.09 331.73 977.23 331.89 982.39 331.85 C 982.49 358.17 982.40 384.50 982.44 410.82 C 977.23 410.87 972.01 410.88 966.80 410.78 C 966.84 384.77 966.66 358.72 966.89 332.72 L 966.92 331.99 Z" fill="#ee370b" />
<path d="M 1019.99 331.90 C 1034.66 331.87 1049.34 331.89 1064.00 331.89 C 1069.89 332.07 1076.79 332.56 1081.48 336.55 C 1086.13 340.49 1087.25 347.34 1087.58 353.09 C 1087.83 361.72 1087.62 370.37 1087.69 379.00 C 1087.64 385.87 1088.12 393.24 1085.78 399.81 C 1084.58 403.28 1082.27 406.29 1079.00 408.02 C 1073.76 410.91 1066.85 410.90 1061.00 411.07 C 1050.33 410.84 1039.67 410.94 1029.00 410.94 C 1023.08 411.12 1017.38 411.18 1011.50 410.21 C 1007.07 409.38 1002.87 407.58 1000.29 403.69 C 996.99 398.79 996.59 391.73 996.52 386.00 C 996.56 375.34 996.44 364.66 996.59 354.00 C 996.86 348.24 997.70 341.30 1002.04 337.05 C 1006.75 332.57 1013.84 332.12 1019.99 331.90 Z" fill="#0764aa" />
<path d="M 395.37 347.78 C 397.12 350.16 398.35 352.68 399.75 355.26 C 404.28 363.58 408.89 371.86 413.38 380.20 C 401.45 380.22 389.53 380.26 377.60 380.19 C 383.51 369.39 389.38 358.54 395.37 347.78 Z" fill="#ffffff" />
<path d="M 676.91 347.58 C 693.61 347.53 710.31 347.59 727.00 347.55 C 729.80 347.63 733.19 347.53 735.26 349.75 C 737.24 351.88 737.28 355.26 737.35 358.00 C 737.34 367.00 737.33 376.00 737.35 385.00 C 737.29 387.73 737.25 391.15 735.33 393.32 C 733.27 395.44 729.74 395.38 727.00 395.45 C 710.30 395.39 693.60 395.48 676.90 395.40 C 676.89 379.46 676.88 363.52 676.91 347.58 Z" fill="#ffffff" />
<path d="M 807.77 347.55 C 813.73 358.44 819.68 369.34 825.67 380.21 C 813.74 380.21 801.80 380.27 789.87 380.18 C 795.79 369.28 801.70 358.36 807.77 347.55 Z" fill="#ffffff" />
<path d="M 882.67 347.67 C 898.78 347.66 914.90 347.66 931.01 347.66 C 933.94 347.73 936.71 348.10 938.04 351.06 C 939.22 354.45 939.06 358.45 939.08 362.01 C 938.89 364.56 939.03 368.18 937.18 370.17 C 935.36 372.19 932.50 372.15 930.00 372.20 C 914.22 372.15 898.44 372.23 882.66 372.16 C 882.66 363.99 882.65 355.83 882.67 347.67 Z" fill="#ffffff" />
<path d="M 1021.99 347.55 C 1035.33 347.57 1048.67 347.57 1062.00 347.55 C 1064.84 347.63 1068.12 347.52 1070.17 349.83 C 1072.06 351.88 1072.06 355.37 1072.17 358.00 C 1072.17 367.00 1072.17 376.00 1072.17 385.00 C 1072.08 387.63 1072.09 391.15 1070.23 393.23 C 1068.21 395.45 1064.76 395.36 1062.00 395.44 C 1050.67 395.42 1039.34 395.43 1028.00 395.43 C 1024.01 395.27 1019.19 396.02 1015.46 394.45 C 1012.17 392.83 1012.13 389.20 1011.93 386.01 C 1011.84 377.01 1011.94 368.00 1011.88 359.00 C 1011.98 356.12 1011.86 352.15 1013.84 349.83 C 1016.01 347.51 1019.06 347.65 1021.99 347.55 Z" fill="#ffffff" />
<path d="M 319.86 353.78 C 323.38 353.77 326.89 353.79 330.40 353.69 C 331.51 357.36 331.48 361.72 330.52 365.42 C 326.96 365.34 323.39 365.36 319.83 365.33 C 319.75 361.48 319.74 357.63 319.86 353.78 Z" fill="#ffffff" />
</svg>